<svg xmlns="http://www.w3.org/2000/svg" viewBox="0 0 512 512" fill="#0dcaf0">
  <!-- Font Awesome layer-group icon - same as navbar -->
  <path d="M264.5 5.2c-14.8-6.9-32.2-6.9-47 0l-176 82c-20.9 9.7-33.5 30.7-33.5 53.3v169c0 22.6 12.6 43.6 33.5 53.3l176 82c14.8 6.9 32.2 6.9 47 0l176-82c20.9-9.7 33.5-30.7 33.5-53.3v-169c0-22.6-12.6-43.6-33.5-53.3l-176-82zM241 46.8c5.5-2.6 11.9-2.6 17.4 0L423.1 128 241 209.2 58.9 128 241 46.8zM48 156.7l176 81.3v177.5l-176-81.3V156.7zm208 258.8V237.9l176-81.3v177.5l-176 81.3z"/>
</svg>
